<svg aria-hidden="true" style="position:absolute;width:0;height:0;overflow:hidden" xmlns="http://www.w3.org/2000/svg"><defs><symbol id="icon-delivery-truck" viewBox="0 0 32 32"><path fill="#ff9401" style="fill:var(--color1, #ff9401)" d="M25.5 25.25c-1.1 0-2 .9-2 2s.9 2 2 2 2-.9 2-2-.9-2-2-2zm0 3c-.55 0-1-.45-1-1s.45-1 1-1 1 .45 1 1-.45 1-1 1zM6.5 25.25c-1.1 0-2 .9-2 2s.9 2 2 2 2-.9 2-2-.9-2-2-2zm0 3c-.55 0-1-.45-1-1s.45-1 1-1 1 .45 1 1-.45 1-1 1z"/><path fill="#2e2e2e" style="fill:var(--color2, #2e2e2e)" d="M.5 27.75h2.038c.25 1.969 1.931 3.5 3.962 3.5s3.719-1.531 3.963-3.5h11.069c.25 1.969 1.931 3.5 3.962 3.5s3.719-1.531 3.963-3.5h2.044c.275 0 .5-.225.5-.5v-8.5c0-.012-.006-.025-.006-.038 0-.031-.012-.062-.019-.094-.012-.031-.019-.062-.037-.094-.006-.012-.006-.025-.013-.031l-4-6.5c-.012-.019-.025-.025-.038-.037a.784.784 0 0 0-.069-.075c-.025-.019-.05-.037-.075-.05s-.056-.031-.087-.037a.295.295 0 0 0-.1-.019c-.019 0-.037-.012-.056-.012h-6.5c-.275 0-.5.225-.5.5v6.488h-1.775c.175-.294.275-.631.275-1h.5c.275 0 .5-.225.5-.5s-.225-.5-.5-.5h-.5v-.994c0-4.5-3.319-8.225-7.637-8.887.088-.188.137-.4.137-.619 0-.825-.675-1.5-1.5-1.5s-1.5.675-1.5 1.5c0 .225.05.431.137.619C4.319 7.532 1 11.258 1 15.757v.994H.5c-.275 0-.5.225-.5.5s.225.5.5.5H1c0 .363.106.706.275 1H.5c-.275 0-.5.225-.5.5v8c0 .275.225.5.5.5zm20.5-4.5c.275 0 .5-.225.5-.5v-10h5.719L31 18.894v7.856h-1.538c-.25-1.969-1.931-3.5-3.962-3.5s-3.719 1.531-3.963 3.5H10.462c-.25-1.969-1.931-3.5-3.963-3.5a4 4 0 0 0-3.962 3.5H.999v-5h19.5v1c0 .275.225.5.5.5zm-14.5 7a3.001 3.001 0 0 1 0-6 3.001 3.001 0 0 1 0 6zm19 0a3.001 3.001 0 0 1 0-6 3.001 3.001 0 0 1 0 6zm-5-9.5H1v-1h19.5v1zM10 5.75c.275 0 .5.225.5.5s-.225.5-.5.5-.5-.225-.5-.5.225-.5.5-.5zm0 2.006c4.412 0 8 3.588 8 8v.994H2v-.994c0-4.412 3.588-8 8-8zM2 17.75h16a1 1 0 0 1-.988 1H2.987a1 1 0 0 1-.988-1z"/><path fill="#2e2e2e" style="fill:var(--color2, #2e2e2e)" d="M22.5 18.25H29a.416.416 0 0 0 .169-.037c.019-.006.031-.012.044-.019s.031-.012.044-.019c.019-.012.025-.025.038-.038a.784.784 0 0 0 .075-.069c.019-.025.038-.05.05-.075s.031-.056.038-.087a.295.295 0 0 0 .019-.1c0-.019.012-.037.012-.056 0-.012-.006-.025-.006-.038 0-.031-.012-.062-.019-.1-.012-.031-.019-.063-.037-.094-.006-.012-.006-.025-.012-.031l-2.462-4c-.012-.019-.025-.025-.037-.044-.019-.025-.038-.05-.063-.069-.025-.025-.056-.037-.081-.056l-.075-.037a.763.763 0 0 0-.113-.025c-.019 0-.031-.012-.05-.012h-4.031c-.275 0-.5.225-.5.5v4c0 .281.225.506.5.506zm3.762-4 1.844 3H25v-3h1.262zm-2.262 3h-1v-3h1v3z"/><path fill="#ff9401" style="fill:var(--color1, #ff9401)" d="M22.5 21.25h.5c.275 0 .5-.225.5-.5s-.225-.5-.5-.5h-.5c-.275 0-.5.225-.5.5s.225.5.5.5zM9.994 9.75A6.012 6.012 0 0 1 16 15.756c0 .275.225.5.5.5s.5-.225.5-.5c0-3.863-3.144-7.006-7.006-7.006-.275 0-.5.225-.5.5s.225.5.5.5zM4.65 6.106a.516.516 0 0 0 .712 0c.456-.456 1.05-1.65.037-2.919-.675-.837-.15-1.469-.031-1.587.194-.194.194-.512 0-.706s-.513-.194-.706 0c-.456.456-1.05 1.65-.037 2.919.675.844.144 1.469.037 1.588a.48.48 0 0 0-.013.706zM14.644 6.106a.516.516 0 0 0 .712 0c.456-.456 1.05-1.65.037-2.919-.675-.837-.15-1.469-.031-1.587.194-.194.194-.512 0-.706s-.512-.194-.706 0c-.456.456-1.05 1.65-.037 2.919.675.844.144 1.469.037 1.588a.49.49 0 0 0-.012.706zM10.356.894a.501.501 0 0 0-.706 0c-.456.456-1.05 1.65-.037 2.919.1.125.244.187.394.187a.493.493 0 0 0 .313-.112.497.497 0 0 0 .075-.7c-.675-.837-.15-1.469-.031-1.587a.507.507 0 0 0-.006-.706z"/></symbol><symbol id="icon-Mouth" viewBox="0 0 32 32"><path fill="#2e2e2e" style="fill:var(--color2, #2e2e2e)" d="M16.178 1.113c-8.376 0-15.167 6.644-15.167 14.835 0 8.195 6.791 14.839 15.167 14.839 8.375 0 15.167-6.644 15.167-14.839 0-8.194-6.792-14.835-15.167-14.835zm11.197 23.453c-.259.258-.569.463-.91.602s-.708.209-1.078.207c-1.199 0-2.511-.664-3.794-1.919-.502-.491-.948-.929-1.156-1.188a9.366 9.366 0 0 0 2.237-1.413l3.837 2.867-2.933-3.759a8.084 8.084 0 0 0 1.383-2.231c.252.174.734.643 1.279 1.177 2.134 2.088 2.569 4.256 1.136 5.658zm-.42-6.358c-.843-.824-1.296-1.266-1.687-1.441.021-.504-.666-.697-.946-.312-2.188 3.02-4.778 3.781-8.145 3.781s-5.956-.76-8.145-3.781c-.305-.42-1.107-.156-.93.454 1.149 3.959 5.056 6.265 9.075 6.265a10.5 10.5 0 0 0 3.295-.536c.216.352.656.783 1.405 1.516 1.39 1.359 2.851 2.107 4.245 2.192a14.014 14.014 0 0 1-8.945 3.205c-7.666 0-13.903-6.102-13.903-13.603 0-7.498 6.237-13.599 13.903-13.599s13.903 6.1 13.903 13.599c0 1.874-.392 3.66-1.097 5.286-.304-.938-.939-1.96-2.029-3.027z"/><path fill="#ff9401" style="fill:var(--color1, #ff9401)" d="M10.65 8.624c-1.416 0-2.832 1.265-3.771 3.793-.093.255.391.714.634.464.911-.94 2.001-1.315 3.138-1.315s2.226.374 3.138 1.315c.242.25.727-.21.634-.464-.94-2.528-2.356-3.793-3.772-3.793zM21.706 8.624c-1.416 0-2.832 1.265-3.772 3.793-.093.255.392.714.634.464.912-.94 2-1.315 3.138-1.315s2.226.374 3.138 1.315c.242.25.727-.21.634-.464-.94-2.528-2.356-3.793-3.772-3.793z"/></symbol><symbol id="icon-home-delivery" viewBox="0 0 32 32"><path fill="#2e2e2e" style="fill:var(--color2, #2e2e2e)" d="M31.962 9.575c-.012-.031-.031-.056-.05-.088-.019-.025-.031-.056-.05-.075-.025-.025-.056-.044-.087-.069-.019-.012-.038-.031-.056-.044l-15.5-7.5c-.012-.006-.019-.006-.031-.006a.472.472 0 0 0-.1-.025c-.031-.006-.063-.012-.094-.012s-.063.006-.094.012-.063.012-.094.025c-.012.006-.019 0-.031.006L8.5 5.324V4.249c.275 0 .5-.225.5-.5v-1.5c0-.275-.225-.5-.5-.5H4c-.275 0-.5.225-.5.5v1.5c0 .275.225.5.5.5v3.25l-3.719 1.8c-.025.012-.038.031-.056.044-.031.019-.063.037-.087.069-.019.025-.038.05-.05.075a.294.294 0 0 0-.05.088.281.281 0 0 0-.019.106C.013 9.7 0 9.725 0 9.75v2.012c0 .031.013.063.019.1.006.031.013.069.025.094v.012c.025.05.056.094.094.125.006.006.019.012.025.025a.614.614 0 0 0 .113.075c.013.006.031.012.044.019a.775.775 0 0 0 .169.037h.006a.518.518 0 0 0 .2-.044h.012l.781-.375v17.919c0 .275.225.5.5.5h28c.275 0 .5-.225.5-.5V11.824l.781.381h.012a.449.449 0 0 0 .2.044h.006a.393.393 0 0 0 .169-.037.231.231 0 0 0 .044-.019.372.372 0 0 0 .113-.075c.006-.006.019-.012.025-.025a.593.593 0 0 0 .094-.125v-.012c.012-.031.019-.063.025-.094s.019-.063.019-.1V9.75c0-.025-.012-.05-.012-.075.019-.031.012-.069 0-.1zM16.219 3.8c-.012-.006-.019-.006-.031-.006a.472.472 0 0 0-.1-.025c-.031-.006-.063-.012-.094-.012s-.063.006-.094.012a.545.545 0 0 0-.094.025c-.012.006-.019 0-.031.006L1 10.95v-.887l15-7.256 15 7.256v.887L16.219 3.8zM4.5 2.75H8v.5H4.5v-.5zm.5 1.5h2.5v1.556L5 7.018V4.249zm24.5 25h-27V11.337L16 4.806l13.5 6.531V29.25z"/><path fill="#ff9401" style="fill:var(--color1, #ff9401)" d="M16 12.25c-3.863 0-7 3.137-7 7s3.137 7 7 7 7-3.137 7-7-3.137-7-7-7zm0 13c-3.306 0-6-2.694-6-6s2.694-6 6-6 6 2.694 6 6-2.694 6-6 6z"/><path fill="#ff9401" style="fill:var(--color1, #ff9401)" d="M16 15.75c-1.931 0-3.5 1.569-3.5 3.5s1.569 3.5 3.5 3.5 3.5-1.569 3.5-3.5-1.569-3.5-3.5-3.5zm0 6a2.5 2.5 0 1 1 0-5 2.5 2.5 0 0 1 0 5zM9 16.25v-3.5c0-.275-.225-.5-.5-.5s-.5.225-.5.5v2h-.25v-2c0-.275-.225-.5-.5-.5s-.5.225-.5.5v2H6.5v-2c0-.275-.225-.5-.5-.5s-.5.225-.5.5v3.5c0 .55.45 1 1 1h.25v8.506c0 .275.225.5.5.5s.5-.225.5-.5V17.25H8a1 1 0 0 0 1-1zm-1-.5v.506H6.5v-.5H8v-.006zM23.5 25.756c0 .275.225.5.5.5s.5-.225.5-.5V20.25h1c.275 0 .5-.225.5-.5v-5.5c0-1.1-.894-2-2-2-.275 0-.5.225-.5.5v13.006zM25 14.25v5h-.5v-5.863c.3.175.5.494.5.863z"/></symbol><symbol id="icon-Left-Arrow" viewBox="0 0 32 32"><path d="M31.083 15H5.005l6-6-1.414-1.414L1.177 16l8.414 8.414L11.005 23l-6-6h26.078v-2z"/></symbol><symbol id="icon-Right-arrow" viewBox="0 0 32 32"><path fill="#ff9401" style="fill:var(--color1, #ff9401)" d="m19.756 4.587-.855.855 3.628 3.629H6.758v1.21h15.771l-3.628 3.628.855.855 5.089-5.088-5.089-5.089z"/></symbol><symbol id="icon-bi_globe" viewBox="0 0 32 32"><path d="M2.036 15c.121-1.734.566-3.43 1.312-5H7.64a27.405 27.405 0 0 0-.624 5h-4.98zM4.51 8a14.05 14.05 0 0 1 6.144-4.944A13.395 13.395 0 0 0 9.46 4.922 18.523 18.523 0 0 0 8.18 8H4.51zM16 0a15.997 15.997 0 0 1 16 16 15.997 15.997 0 0 1-16 16A15.997 15.997 0 0 1 0 16 15.997 15.997 0 0 1 16 0zm-1 2.154c-1.34.408-2.67 1.64-3.774 3.71-.346.648-.66 1.364-.936 2.136H15V2.154zM15 10H9.694a25.022 25.022 0 0 0-.676 5H15v-5zm2 5h5.982a24.907 24.907 0 0 0-.676-5H17v5zm-2 2H9.02c.055 1.685.281 3.36.674 5H15v-5zm2 5h5.306c.393-1.64.619-3.315.674-5H17v5zm-2 2h-4.71c.276.772.59 1.488.936 2.136 1.104 2.07 2.436 3.3 3.774 3.71V24zm-4.346 4.944a13.395 13.395 0 0 1-1.194-1.866A18.523 18.523 0 0 1 8.18 24H4.51a14.05 14.05 0 0 0 6.144 4.944zM3.348 22H7.64a27.242 27.242 0 0 1-.624-5h-4.98c.124 1.78.582 3.466 1.312 5zm17.998 6.944A14.05 14.05 0 0 0 27.49 24h-3.668a18.531 18.531 0 0 1-1.282 3.078 13.395 13.395 0 0 1-1.194 1.866zM21.71 24H17v5.846c1.34-.408 2.67-1.64 3.774-3.71.364-.688.677-1.402.936-2.136zm2.65-2h4.292a13.853 13.853 0 0 0 1.312-5h-4.98a27.242 27.242 0 0 1-.624 5zm.624-7h4.98a13.906 13.906 0 0 0-1.312-5H24.36c.348 1.564.564 3.246.624 5zM23.82 8h3.67a14.05 14.05 0 0 0-6.144-4.944c.449.588.848 1.212 1.194 1.866.518.986.946 2.016 1.28 3.078zm-2.11 0a15.928 15.928 0 0 0-.936-2.136C19.67 3.794 18.34 2.562 17 2.154V8h4.71z"/></symbol><symbol id="icon-Frame-54" viewBox="0 0 43 32"><path d="m33.662 26.793.116.107 6.755-6.222 2.642 2.434-9.398 8.656-6.503-5.989 2.642-2.434 3.744 3.448zM3.86 25.06h19.13v3.213H3.86c-2.042 0-3.689-1.536-3.689-3.384V3.556C.171 1.708 1.818.172 3.86.172h30.883c2.042 0 3.689 1.536 3.689 3.384v12.273h-3.517V6.815l-15.613 8.988L3.689 6.815v18.246h.171zM34.828 3.704l.556-.32H3.219l16.083 9.258 15.527-8.938z"/></symbol><symbol id="icon-Facebook-1" viewBox="0 0 32 32"><path fill="#fff" style="fill:var(--color3, #fff)" d="M32 16c0 8.837-7.163 16-16 16S0 24.837 0 16 7.163 0 16 0s16 7.163 16 16z"/><path fill="#2e2e2e" style="fill:var(--color2, #2e2e2e)" d="M17.371 14.607h2.743v2.732h-2.743v6.375h-2.743v-6.375h-2.743v-2.732h2.743v-1.143c0-1.083.342-2.451 1.022-3.199.68-.75 1.53-1.123 2.547-1.123h1.916v2.732h-1.92a.82.82 0 0 0-.823.819v1.914z"/></symbol><symbol id="icon-Instagram" viewBox="0 0 32 32"><path fill="#fff" style="fill:var(--color3, #fff)" d="M32 16c0 8.837-7.163 16-16 16S0 24.837 0 16 7.163 0 16 0s16 7.163 16 16z"/><path fill="#2e2e2e" style="fill:var(--color2, #2e2e2e)" d="M15.541 12.69c-2.077 0-3.753 1.67-3.753 3.738s1.676 3.738 3.753 3.738 3.753-1.67 3.753-3.738-1.676-3.738-3.753-3.738zm0 6.168c-1.343 0-2.439-1.092-2.439-2.43a2.44 2.44 0 0 1 4.878 0 2.44 2.44 0 0 1-2.439 2.43zm3.907-7.192a.874.874 0 1 0 0 1.746.872.872 0 1 0-.001-1.745zm3.408 4.763c0-1.006.009-2.003-.048-3.007-.057-1.167-.324-2.202-1.18-3.055-.858-.855-1.896-1.119-3.067-1.176-1.01-.056-2.011-.047-3.019-.047-1.01 0-2.011-.009-3.019.047-1.171.056-2.21.323-3.067 1.176-.858.855-1.123 1.888-1.18 3.055-.057 1.006-.048 2.003-.048 3.007s-.009 2.003.048 3.007c.057 1.167.324 2.202 1.18 3.055.858.855 1.896 1.119 3.067 1.176 1.01.056 2.011.047 3.019.047 1.01 0 2.011.009 3.019-.047 1.171-.056 2.21-.323 3.067-1.176.858-.855 1.123-1.888 1.18-3.055.058-1.004.048-2.001.048-3.007zm-1.61 4.298c-.134.332-.295.58-.553.835a2.34 2.34 0 0 1-.838.55c-.962.381-3.248.295-4.315.295s-3.354.086-4.316-.293a2.336 2.336 0 0 1-.838-.55 2.336 2.336 0 0 1-.553-.835c-.381-.961-.295-3.237-.295-4.3s-.086-3.341.295-4.3c.134-.332.295-.58.553-.835s.505-.417.838-.55c.962-.379 3.25-.293 4.316-.293s3.354-.086 4.317.293c.333.133.582.293.838.55.258.257.419.503.553.835.381.959.295 3.237.295 4.3s.086 3.339-.296 4.298z"/></symbol><symbol id="icon-Twitter" viewBox="0 0 32 32"><path fill="#fff" style="fill:var(--color3, #fff)" d="M32 16c0 8.837-7.163 16-16 16S0 24.837 0 16 7.163 0 16 0s16 7.163 16 16z"/><path fill="#2e2e2e" style="fill:var(--color2, #2e2e2e)" d="M23.436 12.766c.012.159.012.318.012.476 0 4.85-3.706 10.438-10.478 10.438-2.086 0-4.025-.602-5.656-1.648.296.034.582.046.89.046a7.396 7.396 0 0 0 4.572-1.567 3.683 3.683 0 0 1-3.444-2.543c.228.034.456.056.696.056.33 0 .662-.046.97-.125-.834-.168-1.584-.618-2.122-1.274s-.832-1.478-.831-2.326v-.046a3.723 3.723 0 0 0 1.664.465c-.505-.335-.92-.789-1.207-1.322s-.436-1.128-.435-1.733c0-.681.182-1.306.501-1.851.925 1.134 2.08 2.062 3.388 2.723s2.741 1.041 4.206 1.116a4.126 4.126 0 0 1-.091-.841 3.657 3.657 0 0 1 1.078-2.594 3.687 3.687 0 0 1 2.605-1.074 3.68 3.68 0 0 1 2.691 1.159 7.306 7.306 0 0 0 2.337-.886 3.661 3.661 0 0 1-1.619 2.022 7.42 7.42 0 0 0 2.12-.568 7.9 7.9 0 0 1-1.846 1.897z"/></symbol><symbol id="icon-Menu" viewBox="0 0 38 32"><path d="M2.824 0h32a2.824 2.824 0 0 1 0 5.648h-32a2.824 2.824 0 0 1 0-5.648zM10.353 13.176h24.471a2.824 2.824 0 0 1 0 5.648H10.353a2.824 2.824 0 0 1 0-5.648zM2.824 26.353h32a2.824 2.824 0 0 1 0 5.648h-32a2.824 2.824 0 0 1 0-5.648z"/></symbol><symbol id="icon-Cart" viewBox="0 0 32 32"><path fill="#2e2e2e" style="fill:var(--color2, #2e2e2e)" d="M23.466 8.534V4.267c0-2.133-2.133-2.133-2.133-2.133h-10.56s-2.355.004-2.24 2.133v4.267H4.266s-2.133 0-2.133 2.133V25.6c0 2.133 2.133 2.133 2.133 2.133h23.467s2.133 0 2.133-2.133V10.667c0-2.133-2.133-2.133-2.133-2.133h-4.267zm-11.733-3.2h8.533v3.2h-8.533v-3.2z"/><path fill="#ff9702" style="fill:var(--color4, #ff9702)" d="M32 8a5.09 5.09 0 1 1-10.181 0A5.09 5.09 0 0 1 32 8z"/></symbol><symbol id="icon-bx_bx-search" viewBox="0 0 32 32"><path d="M13.333 24a10.603 10.603 0 0 0 6.529-2.251l5.861 5.861 1.885-1.885-5.861-5.861a10.602 10.602 0 0 0 2.252-6.531c0-5.881-4.785-10.667-10.667-10.667S2.665 7.451 2.665 13.333C2.665 19.214 7.45 24 13.332 24zm0-18.667c4.412 0 8 3.588 8 8s-3.588 8-8 8-8-3.588-8-8 3.588-8 8-8z"/></symbol><symbol id="icon-food-1" viewBox="0 0 32 32"><path fill="#ff9401" style="fill:var(--color1, #ff9401)" d="m22.659 10.785-.342-1.127a2.448 2.448 0 0 0-4.635 0l-.342 1.127a6.331 6.331 0 0 0-.177 2.933c.157.823.68 1.531 1.421 1.923l-.384 8.572a1.69 1.69 0 0 0 .427 1.313 1.864 1.864 0 0 0 2.75 0c.316-.347.471-.811.427-1.277l-.386-8.609a2.76 2.76 0 0 0 1.419-1.922 6.331 6.331 0 0 0-.177-2.933zm-.874 2.748a1.689 1.689 0 0 1-1.107 1.274.533.533 0 0 0-.345.523l.405 9.003a.616.616 0 0 1-.16.483.823.823 0 0 1-1.159 0 .641.641 0 0 1-.157-.518l.402-8.968a.533.533 0 0 0-.345-.523 1.69 1.69 0 0 1-1.107-1.274 5.255 5.255 0 0 1 .147-2.435l.342-1.127a1.383 1.383 0 0 1 2.594 0l.342 1.127c.239.789.289 1.623.147 2.435zM14.399 8a.533.533 0 0 0-.533.533v4.579l-1.444 1.444a.53.53 0 0 0-.156.404l.467 9.333a.729.729 0 0 1-.202.544.75.75 0 0 1-1.062.005l-.005-.005a.726.726 0 0 1-.202-.544l.47-9.333a.535.535 0 0 0-.156-.404l-1.444-1.444V8.533a.533.533 0 1 0-1.066 0v4.8c0 .141.056.277.156.377l1.433 1.433-.455 9.098a1.801 1.801 0 1 0 3.599 0l-.455-9.098 1.433-1.433c.1-.1.156-.236.156-.377v-4.8A.533.533 0 0 0 14.4 8z"/><path fill="#ff9401" style="fill:var(--color1, #ff9401)" d="M11.199 8a.533.533 0 0 0-.533.533V12.8a.533.533 0 1 0 1.066 0V8.533A.533.533 0 0 0 11.199 8zM12.799 8a.533.533 0 0 0-.533.533V12.8a.533.533 0 1 0 1.066 0V8.533A.533.533 0 0 0 12.799 8z"/><path fill="#2e2e2e" style="fill:var(--color2, #2e2e2e)" d="M16 0C7.163 0 0 7.163 0 16s7.163 16 16 16c8.836 0 16-7.164 16-16C31.99 7.168 24.832.01 16 0zm0 30.933C7.753 30.933 1.067 24.247 1.067 16S7.753 1.067 16 1.067 30.933 7.753 30.933 16c-.009 8.244-6.69 14.924-14.933 14.933z"/><path fill="#2e2e2e" style="fill:var(--color2, #2e2e2e)" d="M17.731 26.012a.534.534 0 0 0-.604-.477h.002a9.817 9.817 0 0 1-2.26 0 .533.533 0 1 0-.124 1.06c.833.097 1.674.097 2.507 0a.533.533 0 0 0 .479-.583zM24.16 9.127a.533.533 0 0 0-.751-.066l-.002.002a.533.533 0 0 0-.064.751 9.6 9.6 0 0 1-.566 12.985.533.533 0 1 0 .753.755 10.666 10.666 0 0 0 .63-14.428zM18.517 5.632c-2.084-.5-4.27-.365-6.278.386a.533.533 0 1 0 .375.998 9.69 9.69 0 0 1 5.653-.347.534.534 0 0 0 .251-1.037zM9.198 22.773A9.534 9.534 0 0 1 6.399 16a9.534 9.534 0 0 1 1.835-5.647.533.533 0 1 0-.853-.641l-.009.013a10.667 10.667 0 0 0 1.07 13.804.533.533 0 1 0 .755-.755z"/></symbol>
<symbol id="icon-Mood-2" viewBox="0 0 52 52"><path d="M26 3.25C38.675 3.25 48.75 13.325 48.75 26C48.75 38.675 38.675 48.75 26 48.75C13.325 48.75 3.25 38.675 3.25 26C3.25 13.325 13.325 3.25 26 3.25ZM26 0C11.7 0 0 11.7 0 26C0 40.3 11.7 52 26 52C40.3 52 52 40.3 52 26C52 11.7 40.3 0 26 0Z" fill="#2E2E2E"/>
<path d="M25.9998 42.8999C19.4998 42.8999 13.6498 38.9999 11.0498 32.8249L13.9748 31.5249C15.9248 36.3999 20.7998 39.3249 25.9998 39.3249C31.1998 39.3249 36.0748 36.0749 38.0248 31.5249L40.9498 32.8249C38.3498 39.3249 32.4998 42.8999 25.9998 42.8999Z" fill="#FF9401"/>
<path d="M22.75 19.5C22.75 20.362 22.4076 21.1886 21.7981 21.7981C21.1886 22.4076 20.362 22.75 19.5 22.75C18.638 22.75 17.8114 22.4076 17.2019 21.7981C16.5924 21.1886 16.25 20.362 16.25 19.5C16.25 18.638 16.5924 17.8114 17.2019 17.2019C17.8114 16.5924 18.638 16.25 19.5 16.25C20.362 16.25 21.1886 16.5924 21.7981 17.2019C22.4076 17.8114 22.75 18.638 22.75 19.5Z" fill="#FF9401"/>
<path d="M35.75 19.5C35.75 20.362 35.4076 21.1886 34.7981 21.7981C34.1886 22.4076 33.362 22.75 32.5 22.75C31.638 22.75 30.8114 22.4076 30.2019 21.7981C29.5924 21.1886 29.25 20.362 29.25 19.5C29.25 18.638 29.5924 17.8114 30.2019 17.2019C30.8114 16.5924 31.638 16.25 32.5 16.25C33.362 16.25 34.1886 16.5924 34.7981 17.2019C35.4076 17.8114 35.75 18.638 35.75 19.5Z" fill="#FF9401"/>
</symbol>
</defs></svg>